Walking07_kinetics.mot
version=1
nRows=24
nColumns=19
inDegrees=yes
endheader
time	1_ground_force_vx	1_ground_force_vy	1_ground_force_vz	1_ground_force_px	1_ground_force_py	1_ground_force_pz	2_ground_force_vx	2_ground_force_vy	2_ground_force_vz	2_ground_force_px	2_ground_force_py	2_ground_force_pz	1_ground_torque_x	1_ground_torque_y	1_ground_torque_z	2_ground_torque_x	2_ground_torque_y	2_ground_torque_z
  0.00000000	-81.10924933	487.84002240	  8.72305583	 -0.39792264	 -0.00033481	  0.14090691	  0.00000000	  0.00000000	  0.00000000	  0.30181907	  0.00246885	 -0.10097818	 -0.00016789	 -0.12970727	  0.00008257	  0.00000000	  0.00000000	  0.00000000
  0.00100000	-84.00273478	479.04598584	 10.60442639	 -0.39900018	 -0.00033451	  0.13918446	  0.00000000	  0.00000000	  0.00000000	  0.30181907	  0.00246885	 -0.10097818	 -0.00026374	 -0.20375258	  0.00012971	  0.00000000	  0.00000000	  0.00000000
  0.00200000	-86.89713018	470.89340284	 12.51449584	 -0.39998656	 -0.00033429	  0.13752977	  0.00000000	  0.00000000	  0.00000000	  0.30181907	  0.00246885	 -0.10097818	 -0.00036390	 -0.28113513	  0.00017897	  0.00000000	  0.00000000	  0.00000000
  0.00300000	-89.73504656	463.80331463	 14.42062142	 -0.40081669	 -0.00033418	  0.13601407	  0.00000000	  0.00000000	  0.00000000	  0.30181907	  0.00246885	 -0.10097818	 -0.00046676	 -0.36059633	  0.00022956	  0.00000000	  0.00000000	  0.00000000
  0.00400000	-92.47080443	458.14018325	 16.29730017	 -0.40145392	 -0.00033420	  0.13468104	  0.00000000	  0.00000000	  0.00000000	  0.30181907	  0.00246885	 -0.10097818	 -0.00057202	 -0.44191162	  0.00028132	  0.00000000	  0.00000000	  0.00000000
  0.00500000	-95.07315106	454.19296057	 18.12650367	 -0.40189206	 -0.00033436	  0.13354545	  0.00000000	  0.00000000	  0.00000000	  0.30181907	  0.00246885	 -0.10097818	 -0.00068059	 -0.52579015	  0.00033472	  0.00000000	  0.00000000	  0.00000000
  0.00600000	-97.52625074	452.17024833	 19.89609239	 -0.40214809	 -0.00033463	  0.13260130	  0.00000000	  0.00000000	  0.00000000	  0.30181907	  0.00246885	 -0.10097818	 -0.00079394	 -0.61335735	  0.00039047	  0.00000000	  0.00000000	  0.00000000
  0.00700000	-99.82842272	452.19726593	 21.59706058	 -0.40225083	 -0.00033498	  0.13183270	  0.00000000	  0.00000000	  0.00000000	  0.30181907	  0.00246885	 -0.10097818	 -0.00091314	 -0.70544681	  0.00044909	  0.00000000	  0.00000000	  0.00000000
  0.00800000	-101.98831212	454.30621475	 23.22022479	 -0.40223069	 -0.00033540	  0.13122250	  0.00000000	  0.00000000	  0.00000000	  0.30181907	  0.00246885	 -0.10097818	 -0.00103804	 -0.80194089	  0.00051052	  0.00000000	  0.00000000	  0.00000000
  0.00900000	-104.01956767	458.42177482	 24.75276867	 -0.40211295	 -0.00033585	  0.13075667	  0.00000000	  0.00000000	  0.00000000	  0.30181907	  0.00246885	 -0.10097818	 -0.00116683	 -0.90143887	  0.00057386	  0.00000000	  0.00000000	  0.00000000
  0.01000000	-105.93534357	464.34744933	 26.17495689	 -0.40191677	 -0.00033631	  0.13042385	  0.00000000	  0.00000000	  0.00000000	  0.30181907	  0.00246885	 -0.10097818	 -0.00129642	 -1.00155193	  0.00063759	  0.00000000	  0.00000000	  0.00000000
  0.01100000	-107.74377434	471.75979273	 27.45789155	 -0.40165865	 -0.00033678	  0.13021138	  0.00000000	  0.00000000	  0.00000000	  0.30181907	  0.00246885	 -0.10097818	 -0.00142346	 -1.09969874	  0.00070007	  0.00000000	  0.00000000	  0.00000000
  0.01200000	-109.44666120	480.22541978	 28.56453700	 -0.40135507	 -0.00033725	  0.13010253	  0.00000000	  0.00000000	  0.00000000	  0.30181907	  0.00246885	 -0.10097818	 -0.00154516	 -1.19371444	  0.00075992	  0.00000000	  0.00000000	  0.00000000
  0.01300000	-111.04242606	489.24936408	 29.45530427	 -0.40102067	 -0.00033769	  0.13007814	  0.00000000	  0.00000000	  0.00000000	  0.30181907	  0.00246885	 -0.10097818	 -0.00165920	 -1.28181335	  0.00081601	  0.00000000	  0.00000000	  0.00000000
  0.01400000	-112.53012875	498.33574640	 30.09591390	 -0.40066497	 -0.00033813	  0.13012042	  0.00000000	  0.00000000	  0.00000000	  0.30181907	  0.00246885	 -0.10097818	 -0.00176331	 -1.36225009	  0.00086721	  0.00000000	  0.00000000	  0.00000000
  0.01500000	-113.91015776	507.03497607	 30.46427986	 -0.40029219	 -0.00033855	  0.13021518	  0.00000000	  0.00000000	  0.00000000	  0.30181907	  0.00246885	 -0.10097818	 -0.00185521	 -1.43324777	  0.00091241	  0.00000000	  0.00000000	  0.00000000
  0.01600000	-115.18130916	514.97214655	 30.55523580	 -0.39990461	 -0.00033896	  0.13035173	  0.00000000	  0.00000000	  0.00000000	  0.30181907	  0.00246885	 -0.10097818	 -0.00193297	 -1.49331599	  0.00095065	  0.00000000	  0.00000000	  0.00000000
  0.01700000	-116.33777749	521.86283920	 30.38257014	 -0.39950620	 -0.00033937	  0.13052136	  0.00000000	  0.00000000	  0.00000000	  0.30181907	  0.00246885	 -0.10097818	 -0.00199566	 -1.54174598	  0.00098148	  0.00000000	  0.00000000	  0.00000000
  0.01800000	-117.36863696	527.52065163	 29.97786830	 -0.39910398	 -0.00033977	  0.13071543	  0.00000000	  0.00000000	  0.00000000	  0.30181907	  0.00246885	 -0.10097818	 -0.00204396	 -1.57906076	  0.00100524	  0.00000000	  0.00000000	  0.00000000
  0.01900000	-118.25916062	531.85757002	 29.38669534	 -0.39870740	 -0.00034015	  0.13092400	  0.00000000	  0.00000000	  0.00000000	  0.30181907	  0.00246885	 -0.10097818	 -0.00208036	 -1.60718679	  0.00102314	  0.00000000	  0.00000000	  0.00000000
  0.02000000	-118.99239764	534.87623012	 28.66267747	 -0.39832701	 -0.00034051	  0.13113578	  0.00000000	  0.00000000	  0.00000000	  0.30181907	  0.00246885	 -0.10097818	 -0.00210873	 -1.62909972	  0.00103709	  0.00000000	  0.00000000	  0.00000000
  0.02100000	-119.55061632	536.65526481	 27.86024882	 -0.39797286	 -0.00034084	  0.13133961	  0.00000000	  0.00000000	  0.00000000	  0.30181907	  0.00246885	 -0.10097818	 -0.00213323	 -1.64803054	  0.00104914	  0.00000000	  0.00000000	  0.00000000
  0.02200000	-119.91690959	537.33170464	 27.02813196	 -0.39765311	 -0.00034113	  0.13152639	  0.00000000	  0.00000000	  0.00000000	  0.30181907	  0.00246885	 -0.10097818	 -0.00215747	 -1.66675349	  0.00106106	  0.00000000	  0.00000000	  0.00000000
  0.02300000	-120.07719961	537.08326279	 26.20507046	 -0.39737310	 -0.00034139	  0.13169085	  0.00000000	  0.00000000	  0.00000000	  0.30181907	  0.00246885	 -0.10097818	 -0.00218409	 -1.68731791	  0.00107415	  0.00000000	  0.00000000	  0.00000000
